<svg width="456" height="58" viewBox="0 0 456 58" fill="none" xmlns="http://www.w3.org/2000/svg">
<path d="M87.6351 0.714722L69.9266 57.865H53.1379L43.9387 28.1975L34.8545 57.865H17.9508L0.24231 0.714722H87.6351Z" fill="#03A9F4"/>
<path d="M112.937 44.6675L106.362 10.7913C108.145 10.1227 109.724 9.78841 111.098 9.78841C112.658 9.78841 113.791 10.132 114.497 10.8192C115.203 11.5064 115.704 12.7971 116.001 14.6915L118.341 29.0666C119.047 33.3755 119.493 36.3842 119.679 38.0929C119.864 39.8015 119.985 40.693 120.041 40.7673C120.097 40.8416 120.217 40.8787 120.403 40.8787L125.028 11.0142C126.402 10.7542 128.315 10.6242 130.766 10.6242C133.218 10.6242 135.112 10.7542 136.45 11.0142L140.684 40.1544C140.721 40.4887 140.786 40.693 140.879 40.7673C140.972 40.8416 141.111 40.8787 141.297 40.8787C141.631 37.3871 142.188 33.4312 142.969 29.0109L146.089 10.2899C147.166 10.067 148.41 9.95556 149.822 9.95556C151.53 9.95556 153.035 10.1599 154.335 10.5685L154.725 11.0699L147.37 48.2892C144.956 48.5492 142.69 48.6792 140.573 48.6792C138.455 48.6792 136.951 48.4192 136.06 47.8991C135.168 47.3791 134.592 46.3019 134.332 44.6675L132.438 32.5768C131.769 28.1937 131.231 23.8849 130.822 19.6504H130.432C130.024 23.2535 129.411 27.5623 128.593 32.5768L126.086 48.2892C123.56 48.5492 121.267 48.6792 119.205 48.6792C117.144 48.6792 115.667 48.4192 114.776 47.8991C113.884 47.3791 113.271 46.3019 112.937 44.6675ZM167.93 37.9814C168.933 40.8787 170.957 42.3274 174.003 42.3274C175.526 42.3274 176.761 41.9467 177.708 41.1852C178.656 40.4237 179.398 39.4579 179.937 38.2879C180.476 37.1178 180.838 35.8084 181.024 34.3598C181.209 32.9111 181.302 31.4811 181.302 30.0696C181.302 28.7695 181.256 27.3208 181.163 25.7236C181.07 24.1264 180.801 22.6313 180.355 21.2383C179.909 19.8454 179.203 18.6753 178.238 17.7281C177.272 16.7809 175.86 16.3073 174.003 16.3073C172.22 16.3073 170.855 16.7624 169.908 17.6724C168.961 18.5825 168.255 19.7061 167.791 21.0433C167.326 22.3805 167.038 23.8013 166.927 25.3057C166.816 26.8101 166.76 28.138 166.76 29.2895C166.76 30.9982 166.843 32.5211 167.011 33.8583C167.178 35.1956 167.484 36.5699 167.93 37.9814ZM163.417 45.6704C159.442 42.3645 157.455 36.9228 157.455 29.3452C157.455 26.0765 157.836 23.207 158.597 20.7369C159.359 18.2667 160.455 16.1959 161.885 14.5244C163.315 12.8529 165.051 11.5899 167.094 10.7356C169.137 9.88127 171.44 9.4541 174.003 9.4541C176.566 9.4541 178.878 9.88127 180.94 10.7356C183.002 11.5899 184.747 12.8622 186.177 14.5522C187.608 16.2423 188.703 18.3225 189.465 20.7926C190.226 23.2627 190.607 26.1136 190.607 29.3452C190.607 32.5768 190.226 35.4277 189.465 37.8979C188.703 40.368 187.608 42.4388 186.177 44.1103C184.747 45.7819 183.002 47.0448 180.94 47.8991C178.878 48.7535 176.566 49.1806 174.003 49.1806C169.769 49.1806 166.24 48.0106 163.417 45.6704ZM224.149 22.0462C224.149 23.272 223.963 24.4328 223.592 25.5286C223.22 26.6244 222.728 27.6087 222.115 28.4816C221.502 29.3545 220.778 30.116 219.942 30.766C219.106 31.4161 218.243 31.9082 217.351 32.2425C219.283 32.9483 220.713 34.657 221.642 37.3685L223.313 42.1045C223.945 43.9618 224.873 45.3361 226.099 46.2276C225.542 46.9705 224.706 47.5927 223.592 48.0941C222.477 48.5956 221.252 48.8463 219.914 48.8463C218.577 48.8463 217.537 48.4656 216.794 47.7041C216.051 46.9427 215.364 45.6147 214.733 43.7203L212.727 37.87C212.318 36.7556 211.77 35.9013 211.083 35.307C210.396 34.7127 209.365 34.4155 207.991 34.4155H205.706V48.3449C204.518 48.5677 203.032 48.6792 201.249 48.6792C199.466 48.6792 197.999 48.5677 196.847 48.3449V10.5685L197.237 10.1784C200.469 10.1041 203.19 10.0484 205.4 10.0113C207.61 9.97413 209.347 9.95556 210.61 9.95556C212.652 9.95556 214.51 10.2063 216.181 10.7077C217.853 11.2092 219.274 11.9614 220.444 12.9643C221.614 13.9672 222.524 15.2301 223.174 16.7531C223.824 18.276 224.149 20.0404 224.149 22.0462ZM205.706 16.6417V27.5623C207.378 27.5623 208.808 27.5344 209.997 27.4787C211.185 27.423 212.142 27.2001 212.866 26.8101C213.59 26.4201 214.138 25.8722 214.51 25.1664C214.881 24.4607 215.067 23.4392 215.067 22.102C215.067 18.4989 213.321 16.6974 209.829 16.6974H207.517C207.517 16.6974 206.914 16.6788 205.706 16.6417ZM255.741 45.8933C254.552 46.8591 252.992 47.5648 251.06 48.0106C249.129 48.4563 246.993 48.6792 244.653 48.6792C243.501 48.6792 241.839 48.6606 239.666 48.6235C237.493 48.5863 234.772 48.5306 231.504 48.4563L231.114 48.0663V10.5685L231.504 10.1784C233.658 10.1041 235.896 10.0484 238.218 10.0113C240.539 9.97413 242.981 9.95556 245.544 9.95556C248.702 9.95556 251.339 10.457 253.456 11.4599C255.573 12.4628 257.264 13.8372 258.527 15.583C259.789 17.3288 260.681 19.3811 261.201 21.7398C261.721 24.0985 261.981 26.6336 261.981 29.3452C261.981 33.0597 261.554 36.2728 260.699 38.9843C259.845 41.6959 258.192 43.9989 255.741 45.8933ZM245.489 41.7145C250.392 41.7145 252.843 37.5914 252.843 29.3452C252.843 21.0619 250.392 16.9202 245.489 16.9202H242.341C242.341 16.9202 241.551 16.9017 239.973 16.8645V41.7702C240.641 41.7331 241.431 41.7145 242.341 41.7145H245.489ZM282.986 26.7265L291.734 26.6708C295.671 26.6708 297.64 28.528 297.64 32.2425V46.8962C292.848 48.4192 287.815 49.1806 282.541 49.1806C279.866 49.1806 277.498 48.7349 275.437 47.8434C273.375 46.9519 271.648 45.6704 270.255 43.9989C268.862 42.3274 267.813 40.2751 267.107 37.8421C266.401 35.4091 266.048 32.6511 266.048 29.5681C266.048 26.1879 266.541 23.2442 267.525 20.7369C268.509 18.2296 269.828 16.1402 271.481 14.4687C273.134 12.7971 275.037 11.5435 277.192 10.7077C279.346 9.87198 281.594 9.4541 283.934 9.4541C288.763 9.4541 293.294 10.7913 297.529 13.4658C297.492 14.0601 297.352 14.6637 297.111 15.2766C296.869 15.8895 296.572 16.4838 296.219 17.0595C295.866 17.6353 295.458 18.1553 294.994 18.6196C294.529 19.0839 294.056 19.4832 293.573 19.8175C290.49 17.8117 287.37 16.8088 284.212 16.8088C278.158 16.8088 275.13 21.0433 275.13 29.5124C275.13 37.9443 278.232 42.1602 284.435 42.1602C285.289 42.1602 286.116 42.1231 286.915 42.0488C287.713 41.9745 288.502 41.8631 289.283 41.7145V37.9814C289.283 37.1271 289.292 36.3842 289.31 35.7527C289.329 35.1213 289.357 34.5827 289.394 34.1369H286.608C285.011 34.1369 283.906 33.8305 283.293 33.2176C282.68 32.6047 282.374 31.6482 282.374 30.3481C282.374 29.2338 282.578 28.0266 282.986 26.7265ZM313.464 37.0899L313.408 41.1016V41.1573C315.117 41.083 316.491 41.0459 317.531 41.0459H330.458C330.458 42.4202 330.402 43.4789 330.291 44.2218C329.845 47.0819 327.95 48.512 324.607 48.512H309.787C308.189 48.512 306.936 48.0477 306.026 47.1191C305.116 46.1905 304.661 44.9275 304.661 43.3303V10.6799L305.051 10.2899H329.065C329.288 11.3671 329.399 12.5371 329.399 13.8001C329.399 15.063 329.139 16.3816 328.619 17.756H313.408L313.464 21.7677V25.6679C314.43 25.6307 315.693 25.6122 317.253 25.6122H325.777C326.112 26.6522 326.279 27.8409 326.279 29.1781C326.279 30.5153 326.112 31.7411 325.777 32.8554H313.464V37.0899ZM366.618 9.89984L367.008 10.2899V48.1777C365.523 48.512 363.767 48.6792 361.743 48.6792C359.719 48.6792 357.926 48.5677 356.366 48.3449L347.619 28.398C346.579 26.1322 345.52 23.5135 344.443 20.5419L344.276 20.5976C344.721 26.0208 344.944 31.5739 344.944 37.2571V48.3449C343.793 48.5677 342.4 48.6792 340.765 48.6792C339.131 48.6792 337.757 48.5677 336.642 48.3449V10.457C338.054 10.1227 339.753 9.95556 341.741 9.95556C343.728 9.95556 345.501 10.067 347.062 10.2899L355.698 30.181C357.258 33.8583 358.409 36.6814 359.152 38.65L359.375 38.5386C358.929 33.3755 358.706 27.8966 358.706 22.102V15.3044C358.706 13.3729 359.096 11.9892 359.877 11.1535C360.657 10.3177 361.92 9.89984 363.665 9.89984H366.618ZM375.533 48.3449V10.2899C376.685 10.067 378.17 9.95556 379.991 9.95556C381.811 9.95556 383.315 10.067 384.504 10.2899V48.3449C383.315 48.5677 381.811 48.6792 379.991 48.6792C378.17 48.6792 376.685 48.5677 375.533 48.3449ZM422.67 10.2899V34.3041C422.67 39.0586 421.37 42.7267 418.77 45.3083C416.17 47.8898 412.455 49.1806 407.626 49.1806C402.798 49.1806 399.074 47.8898 396.455 45.3083C393.836 42.7267 392.527 39.0586 392.527 34.3041V10.2899L392.917 9.89984H396.204C399.733 9.89984 401.497 11.7942 401.497 15.583V34.4155C401.497 37.0157 401.962 38.9472 402.89 40.2101C403.819 41.4731 405.398 42.1045 407.626 42.1045C409.855 42.1045 411.434 41.4731 412.362 40.2101C413.291 38.9472 413.755 37.0157 413.755 34.4155V10.2899C414.907 10.067 416.393 9.95556 418.213 9.95556C419.996 9.95556 421.481 10.067 422.67 10.2899ZM427.183 45.0575C427.295 43.8318 427.675 42.606 428.325 41.3802C428.975 40.1544 429.746 39.1515 430.638 38.3715C434.612 40.7859 438.382 41.9931 441.948 41.9931C443.508 41.9931 444.651 41.6402 445.375 40.9345C446.099 40.2287 446.461 39.3558 446.461 38.3157C446.461 36.5699 445.291 35.1956 442.951 34.1926L436.377 31.4068C433.814 30.2553 431.845 28.8716 430.471 27.2558C429.096 25.64 428.409 23.5878 428.409 21.099C428.409 19.3904 428.753 17.8303 429.44 16.4188C430.127 15.0073 431.093 13.7815 432.337 12.7414C433.581 11.7014 435.058 10.8935 436.767 10.3177C438.475 9.74197 440.37 9.4541 442.45 9.4541C446.61 9.4541 450.807 10.5127 455.042 12.63C454.856 15.4902 453.853 17.7189 452.033 19.3161C448.244 17.496 444.901 16.5859 442.004 16.5859C440.518 16.5859 439.404 16.9202 438.661 17.5888C437.918 18.2575 437.547 19.0189 437.547 19.8733C437.547 21.3219 438.642 22.492 440.834 23.3835L447.52 26.2251C450.343 27.4137 452.451 28.9366 453.844 30.7939C455.237 32.6511 455.933 34.8055 455.933 37.2571C455.933 39.0029 455.618 40.6001 454.986 42.0488C454.355 43.4975 453.417 44.7511 452.172 45.8097C450.928 46.8684 449.377 47.6948 447.52 48.2892C445.663 48.8835 443.49 49.1806 441.001 49.1806C436.172 49.1806 431.566 47.8063 427.183 45.0575Z" fill="#f7f7fa"/>
</svg>
